<svg width="500" height="500" viewBox="0 0 500 500" fill="none" xmlns="http://www.w3.org/2000/svg">
<rect width="500" height="500" rx="100" fill="url(#paint0_linear_13_2)"/>
<path d="M167.054 316C167.054 323.583 165.537 329.867 162.504 334.85C159.471 339.833 155.679 343.842 151.129 346.875C146.579 349.692 141.487 351.75 135.854 353.05C130.437 354.35 125.237 355 120.254 355V163.575C120.254 149.275 123.504 138.225 130.004 130.425C136.504 122.625 145.929 118.725 158.279 118.725C164.346 118.725 169.546 119.808 173.879 121.975C178.212 123.925 181.679 126.525 184.279 129.775C186.879 133.025 188.721 136.817 189.804 141.15C191.104 145.267 191.754 149.6 191.754 154.15V157.4C190.237 156.1 188.504 155.233 186.554 154.8C184.821 154.15 183.087 153.825 181.354 153.825C178.104 153.825 175.504 154.475 173.554 155.775C171.821 156.858 170.412 158.375 169.329 160.325C168.462 162.058 167.812 164.117 167.379 166.5C167.162 168.883 167.054 171.375 167.054 173.975V316ZM195.654 119.375C196.737 119.375 197.604 119.375 198.254 119.375C199.121 119.158 200.096 119.05 201.179 119.05C214.396 119.05 224.579 122.625 231.729 129.775C238.879 136.925 242.454 148.408 242.454 164.225V222.4C242.454 229.55 241.371 235.833 239.204 241.25C237.254 246.667 234.546 251.325 231.079 255.225C227.829 258.908 223.821 261.725 219.054 263.675C214.504 265.625 209.629 266.6 204.429 266.6C197.712 266.6 192.187 265.517 187.854 263.35C183.521 261.183 180.054 258.367 177.454 254.9C175.071 251.217 173.337 247.1 172.254 242.55C171.387 238 170.954 233.45 170.954 228.9C173.987 230.633 177.454 231.5 181.354 231.5C184.604 231.5 187.096 230.958 188.829 229.875C190.779 228.575 192.187 227.058 193.054 225.325C194.137 223.375 194.787 221.208 195.004 218.825C195.437 216.442 195.654 213.95 195.654 211.35V119.375ZM307.223 304.3C307.223 306.9 307.331 309.392 307.548 311.775C307.981 314.158 308.631 316.325 309.498 318.275C310.581 320.008 311.99 321.525 313.723 322.825C315.673 323.908 318.273 324.45 321.523 324.45C323.256 324.45 324.99 324.233 326.723 323.8C328.673 323.15 330.406 322.175 331.923 320.875C332.79 322.608 333.331 324.342 333.548 326.075C333.765 327.592 333.873 329.217 333.873 330.95C333.873 337.883 330.948 343.625 325.098 348.175C319.248 352.725 312.206 355 303.973 355C290.973 355 281.006 351.533 274.073 344.6C267.14 337.667 263.673 329 263.673 318.6V228.25C263.673 221.1 264.973 215.142 267.573 210.375C270.39 205.392 273.856 201.383 277.973 198.35C282.306 195.317 286.965 193.15 291.948 191.85C297.148 190.55 302.24 189.9 307.223 189.9V304.3ZM381.323 316.65C381.323 324.233 379.915 330.517 377.098 335.5C374.498 340.267 371.031 344.167 366.698 347.2C362.581 350.017 357.923 352.075 352.723 353.375C347.523 354.458 342.54 355 337.773 355V240.6C337.773 238 337.556 235.508 337.123 233.125C336.906 230.742 336.256 228.683 335.173 226.95C334.306 225 332.898 223.483 330.948 222.4C329.215 221.1 326.723 220.45 323.473 220.45C321.74 220.45 319.898 220.775 317.948 221.425C316.215 221.858 314.59 222.725 313.073 224.025C312.206 222.292 311.665 220.667 311.448 219.15C311.231 217.417 311.123 215.683 311.123 213.95C311.123 207.017 314.048 201.275 319.898 196.725C325.748 192.175 332.79 189.9 341.023 189.9C354.023 189.9 363.99 193.258 370.923 199.975C377.856 206.475 381.323 215.9 381.323 228.25V316.65Z" fill="#E0ECFF"/>
<defs>
<linearGradient id="paint0_linear_13_2" x1="0" y1="0" x2="500" y2="500" gradientUnits="userSpaceOnUse">
<stop stop-color="#132837"/>
<stop offset="1" stop-color="#254471"/>
</linearGradient>
</defs>
</svg>
